<mxfile modified="2022-03-26T23:57:04.079Z" host="app.diagrams.net" agent="5.0 (Windows NT 10.0; Win64; x64) AppleWebKit/537.36 (KHTML, like Gecko) Chrome/99.0.4844.82 Safari/537.36" etag="98BbiTYgDLATsw4E6ubl" version="17.2.4" type="github">
  <diagram id="f106602c-feb2-e66a-4537-3a34d633f6aa" name="Page-1">
    <mxGraphModel dx="1422" dy="794" grid="1" gridSize="10" guides="1" tooltips="1" connect="1" arrows="1" fold="1" page="1" pageScale="1" pageWidth="1169" pageHeight="827" background="none" math="0" shadow="0">
      <root>
        <mxCell id="0" />
        <mxCell id="1" parent="0" />
        <mxCell id="0u9vXaFGfli4As_Fi_g8-1038" value="External SaaS Providers" style="sketch=0;points=[[0,0,0],[0.25,0,0],[0.5,0,0],[0.75,0,0],[1,0,0],[1,0.25,0],[1,0.5,0],[1,0.75,0],[1,1,0],[0.75,1,0],[0.5,1,0],[0.25,1,0],[0,1,0],[0,0.75,0],[0,0.5,0],[0,0.25,0]];rounded=1;absoluteArcSize=1;arcSize=2;html=1;strokeColor=none;gradientColor=none;shadow=0;dashed=0;fontSize=12;fontColor=#9E9E9E;align=left;verticalAlign=top;spacing=10;spacingTop=-4;fillColor=#FFEBEE;fontFamily=Helvetica;" vertex="1" parent="1">
          <mxGeometry x="400" y="590" width="250" height="80" as="geometry" />
        </mxCell>
        <mxCell id="0u9vXaFGfli4As_Fi_g8-1035" value="Multiple Clients&amp;nbsp; API/UI Requests" style="rounded=1;absoluteArcSize=1;arcSize=2;html=1;strokeColor=none;gradientColor=none;shadow=0;dashed=0;fontSize=12;fontColor=#9E9E9E;align=center;verticalAlign=top;spacing=10;spacingTop=-4;fillColor=#F1F8E9;labelPosition=center;verticalLabelPosition=bottom;" vertex="1" parent="1">
          <mxGeometry x="945" y="430" width="200" height="100" as="geometry" />
        </mxCell>
        <mxCell id="14" value="&lt;b&gt;Google &lt;/b&gt;Cloud Platform" style="fillColor=#F6F6F6;strokeColor=none;shadow=0;gradientColor=none;fontSize=14;align=left;spacing=10;fontColor=#717171;9E9E9E;verticalAlign=top;spacingTop=-4;fontStyle=0;spacingLeft=40;html=1;container=0;" parent="1" vertex="1">
          <mxGeometry x="200" y="90" width="695" height="480" as="geometry" />
        </mxCell>
        <mxCell id="0u9vXaFGfli4As_Fi_g8-1041" style="edgeStyle=orthogonalEdgeStyle;shape=connector;rounded=0;orthogonalLoop=1;jettySize=auto;html=1;entryX=-0.004;entryY=0.625;entryDx=0;entryDy=0;entryPerimeter=0;dashed=0;labelBackgroundColor=none;fontFamily=Helvetica;fontSize=21;fontColor=#000000;startFill=1;endArrow=blockThin;endFill=1;startSize=4;endSize=4;strokeColor=#4284F3;strokeWidth=2;elbow=vertical;exitX=0.5;exitY=1;exitDx=0;exitDy=0;" edge="1" parent="1" source="997" target="0u9vXaFGfli4As_Fi_g8-1038">
          <mxGeometry relative="1" as="geometry">
            <Array as="points">
              <mxPoint x="122" y="640" />
            </Array>
          </mxGeometry>
        </mxCell>
        <mxCell id="997" value="Multiple&lt;br&gt;Clients&lt;br&gt;API/UI Requests" style="rounded=1;absoluteArcSize=1;arcSize=2;html=1;strokeColor=none;gradientColor=none;shadow=0;dashed=0;fontSize=12;fontColor=#9E9E9E;align=left;verticalAlign=top;spacing=10;spacingTop=-4;fillColor=#F1F8E9;" parent="1" vertex="1">
          <mxGeometry x="69" y="142" width="105" height="230" as="geometry" />
        </mxCell>
        <mxCell id="818" value="Architecture: Transformed and Migrated Application" style="fillColor=#4DA1F5;strokeColor=none;shadow=1;gradientColor=none;fontSize=14;align=left;spacingLeft=50;fontColor=#ffffff;html=1;" parent="1" vertex="1">
          <mxGeometry x="75" y="40" width="1045" height="40" as="geometry" />
        </mxCell>
        <mxCell id="985" value="" style="strokeColor=#dddddd;fillColor=#ffffff;shadow=1;strokeWidth=1;rounded=1;absoluteArcSize=1;arcSize=2;labelPosition=center;verticalLabelPosition=middle;align=center;verticalAlign=bottom;spacingLeft=0;fontColor=#999999;fontSize=12;whiteSpace=wrap;spacingBottom=2;html=1;" parent="1" vertex="1">
          <mxGeometry x="85" y="200" width="70" height="70" as="geometry" />
        </mxCell>
        <mxCell id="986" value="" style="dashed=0;connectable=0;html=1;fillColor=#757575;strokeColor=none;shape=mxgraph.gcp2.mobile_devices;part=1;" parent="985" vertex="1">
          <mxGeometry x="0.5" width="50" height="36.5" relative="1" as="geometry">
            <mxPoint x="-25" y="16.75" as="offset" />
          </mxGeometry>
        </mxCell>
        <mxCell id="998" style="edgeStyle=orthogonalEdgeStyle;rounded=0;elbow=vertical;html=1;labelBackgroundColor=none;startFill=1;startSize=4;endArrow=blockThin;endFill=1;endSize=4;jettySize=auto;orthogonalLoop=1;strokeColor=#4284F3;strokeWidth=2;fontSize=12;fontColor=#000000;align=left;dashed=0;exitX=1;exitY=0.5;exitDx=0;exitDy=0;entryX=0;entryY=0.5;entryDx=0;entryDy=0;" parent="1" source="997" target="989" edge="1">
          <mxGeometry relative="1" as="geometry" />
        </mxCell>
        <mxCell id="987" value="" style="strokeColor=#dddddd;fillColor=#ffffff;shadow=1;strokeWidth=1;rounded=1;absoluteArcSize=1;arcSize=2;labelPosition=center;verticalLabelPosition=middle;align=center;verticalAlign=bottom;spacingLeft=0;fontColor=#999999;fontSize=12;whiteSpace=wrap;spacingBottom=2;html=1;" parent="1" vertex="1">
          <mxGeometry x="85" y="289.5" width="70" height="70" as="geometry" />
        </mxCell>
        <mxCell id="988" value="" style="dashed=0;connectable=0;html=1;fillColor=#757575;strokeColor=none;shape=mxgraph.gcp2.laptop;part=1;" parent="987" vertex="1">
          <mxGeometry x="0.5" width="50" height="33" relative="1" as="geometry">
            <mxPoint x="-25" y="18.5" as="offset" />
          </mxGeometry>
        </mxCell>
        <mxCell id="0u9vXaFGfli4As_Fi_g8-1001" value="on-premises" style="sketch=0;points=[[0,0,0],[0.25,0,0],[0.5,0,0],[0.75,0,0],[1,0,0],[1,0.25,0],[1,0.5,0],[1,0.75,0],[1,1,0],[0.75,1,0],[0.5,1,0],[0.25,1,0],[0,1,0],[0,0.75,0],[0,0.5,0],[0,0.25,0]];rounded=1;absoluteArcSize=1;arcSize=2;html=1;strokeColor=none;gradientColor=none;shadow=0;dashed=0;fontSize=12;fontColor=#9E9E9E;align=left;verticalAlign=top;spacing=10;spacingTop=-4;fillColor=#EFEBE9;" vertex="1" parent="1">
          <mxGeometry x="940" y="105.25" width="200" height="274.75" as="geometry" />
        </mxCell>
        <mxCell id="0u9vXaFGfli4As_Fi_g8-1022" value="" style="group" vertex="1" connectable="0" parent="1">
          <mxGeometry x="980" y="213" width="160" height="64" as="geometry" />
        </mxCell>
        <mxCell id="0u9vXaFGfli4As_Fi_g8-1023" value="" style="group" vertex="1" connectable="0" parent="0u9vXaFGfli4As_Fi_g8-1022">
          <mxGeometry x="-29" width="160" height="64" as="geometry" />
        </mxCell>
        <mxCell id="0u9vXaFGfli4As_Fi_g8-1016" value="HR Service Application" style="dashed=0;strokeColor=#dddddd;shadow=1;strokeWidth=1;labelPosition=center;verticalLabelPosition=middle;align=left;verticalAlign=middle;spacingLeft=5;fontSize=12;fontFamily=Helvetica;fontColor=#000000;" vertex="1" parent="0u9vXaFGfli4As_Fi_g8-1023">
          <mxGeometry width="140" height="44" as="geometry" />
        </mxCell>
        <mxCell id="0u9vXaFGfli4As_Fi_g8-1020" value="HR Service Application" style="dashed=0;strokeColor=#dddddd;shadow=1;strokeWidth=1;labelPosition=center;verticalLabelPosition=middle;align=left;verticalAlign=middle;spacingLeft=5;fontSize=12;fontFamily=Helvetica;fontColor=#000000;" vertex="1" parent="0u9vXaFGfli4As_Fi_g8-1023">
          <mxGeometry x="10" y="10" width="140" height="44" as="geometry" />
        </mxCell>
        <mxCell id="0u9vXaFGfli4As_Fi_g8-1021" value="HR Service ApplicationÂ &#xa;{on-prem applications}" style="dashed=0;strokeColor=#dddddd;shadow=1;strokeWidth=1;labelPosition=center;verticalLabelPosition=middle;align=left;verticalAlign=middle;spacingLeft=5;fontSize=12;fontFamily=Helvetica;fontColor=#000000;" vertex="1" parent="0u9vXaFGfli4As_Fi_g8-1023">
          <mxGeometry x="20" y="20" width="140" height="44" as="geometry" />
        </mxCell>
        <mxCell id="0u9vXaFGfli4As_Fi_g8-1024" style="edgeStyle=orthogonalEdgeStyle;shape=connector;rounded=0;orthogonalLoop=1;jettySize=auto;html=1;dashed=0;labelBackgroundColor=none;fontFamily=Helvetica;fontSize=12;fontColor=#000000;startFill=1;endArrow=blockThin;endFill=1;startSize=4;endSize=4;strokeColor=#4284F3;strokeWidth=2;elbow=vertical;entryX=0.825;entryY=0.5;entryDx=0;entryDy=0;entryPerimeter=0;" edge="1" parent="1" source="0u9vXaFGfli4As_Fi_g8-1021" target="0u9vXaFGfli4As_Fi_g8-1025">
          <mxGeometry relative="1" as="geometry">
            <mxPoint x="870" y="280" as="targetPoint" />
            <Array as="points">
              <mxPoint x="1041" y="157" />
            </Array>
          </mxGeometry>
        </mxCell>
        <mxCell id="15" value="" style="shape=mxgraph.gcp2.google_cloud_platform;fillColor=#F6F6F6;strokeColor=none;shadow=0;gradientColor=none;" parent="1" vertex="1">
          <mxGeometry x="220" y="100" width="23" height="20" as="geometry">
            <mxPoint x="20" y="10" as="offset" />
          </mxGeometry>
        </mxCell>
        <mxCell id="0u9vXaFGfli4As_Fi_g8-1002" value="" style="strokeColor=#dddddd;fillColor=#ffffff;shadow=1;strokeWidth=1;rounded=1;absoluteArcSize=1;arcSize=2;fontSize=11;fontColor=#9E9E9E;align=center;html=1;" vertex="1" parent="1">
          <mxGeometry x="638" y="226.14" width="147" height="60.86" as="geometry" />
        </mxCell>
        <mxCell id="0u9vXaFGfli4As_Fi_g8-1003" value="Internal TCP &lt;br&gt;Load Balancer" style="dashed=0;connectable=0;html=1;fillColor=#5184F3;strokeColor=none;shape=mxgraph.gcp2.hexIcon;prIcon=cloud_load_balancing;part=1;labelPosition=right;verticalLabelPosition=middle;align=left;verticalAlign=middle;spacingLeft=5;fontColor=#999999;fontSize=12;" vertex="1" parent="0u9vXaFGfli4As_Fi_g8-1002">
          <mxGeometry y="0.5" width="44" height="39" relative="1" as="geometry">
            <mxPoint x="5" y="-18" as="offset" />
          </mxGeometry>
        </mxCell>
        <mxCell id="0u9vXaFGfli4As_Fi_g8-1032" style="edgeStyle=orthogonalEdgeStyle;shape=connector;rounded=0;orthogonalLoop=1;jettySize=auto;html=1;entryX=0.5;entryY=0;entryDx=0;entryDy=0;dashed=0;labelBackgroundColor=none;fontFamily=Helvetica;fontSize=12;fontColor=#000000;startFill=1;endArrow=blockThin;endFill=1;startSize=4;endSize=4;strokeColor=#4284F3;strokeWidth=2;elbow=vertical;" edge="1" parent="1" source="993" target="0u9vXaFGfli4As_Fi_g8-1030">
          <mxGeometry relative="1" as="geometry" />
        </mxCell>
        <mxCell id="993" value="" style="strokeColor=#dddddd;fillColor=#ffffff;shadow=1;strokeWidth=1;rounded=1;absoluteArcSize=1;arcSize=2;fontSize=11;fontColor=#9E9E9E;align=center;html=1;" parent="1" vertex="1">
          <mxGeometry x="623" y="359.5" width="177" height="80" as="geometry" />
        </mxCell>
        <mxCell id="994" value="&lt;font color=&quot;#000000&quot;&gt;Legacy Authentication &lt;br&gt;Platform&lt;/font&gt;&lt;br&gt;Compute Engine&lt;hr&gt;&lt;font style=&quot;font-size: 11px&quot;&gt;Virtual Machines (IIS)&lt;/font&gt;" style="dashed=0;connectable=0;html=1;fillColor=#5184F3;strokeColor=none;shape=mxgraph.gcp2.hexIcon;prIcon=compute_engine;part=1;labelPosition=right;verticalLabelPosition=middle;align=left;verticalAlign=top;spacingLeft=5;fontColor=#999999;fontSize=12;spacingTop=-8;" parent="993" vertex="1">
          <mxGeometry width="44" height="39" relative="1" as="geometry">
            <mxPoint x="5" y="7" as="offset" />
          </mxGeometry>
        </mxCell>
        <mxCell id="1000" style="rounded=0;elbow=vertical;html=1;labelBackgroundColor=none;startFill=1;startSize=4;endArrow=blockThin;endFill=1;endSize=4;jettySize=auto;orthogonalLoop=1;strokeColor=#4284F3;strokeWidth=2;fontSize=12;fontColor=#000000;align=left;dashed=0;exitX=0.5;exitY=1;exitDx=0;exitDy=0;entryX=0.5;entryY=0;entryDx=0;entryDy=0;edgeStyle=orthogonalEdgeStyle;" parent="1" source="0u9vXaFGfli4As_Fi_g8-1002" target="993" edge="1">
          <mxGeometry relative="1" as="geometry" />
        </mxCell>
        <mxCell id="0u9vXaFGfli4As_Fi_g8-1015" style="edgeStyle=orthogonalEdgeStyle;shape=connector;rounded=0;orthogonalLoop=1;jettySize=auto;html=1;entryX=0;entryY=0.5;entryDx=0;entryDy=0;dashed=0;labelBackgroundColor=none;fontFamily=Helvetica;fontSize=12;fontColor=#000000;startFill=1;endArrow=blockThin;endFill=1;startSize=4;endSize=4;strokeColor=#4284F3;strokeWidth=2;elbow=vertical;" edge="1" parent="1" source="989" target="0u9vXaFGfli4As_Fi_g8-1002">
          <mxGeometry relative="1" as="geometry" />
        </mxCell>
        <mxCell id="989" value="" style="strokeColor=#dddddd;fillColor=#ffffff;shadow=1;strokeWidth=1;rounded=1;absoluteArcSize=1;arcSize=2;fontSize=11;fontColor=#9E9E9E;align=center;html=1;" parent="1" vertex="1">
          <mxGeometry x="210" y="222.14" width="130" height="67.86" as="geometry" />
        </mxCell>
        <mxCell id="990" value="Cloud Load&#xa;Balancing" style="dashed=0;connectable=0;html=1;fillColor=#5184F3;strokeColor=none;shape=mxgraph.gcp2.hexIcon;prIcon=cloud_load_balancing;part=1;labelPosition=right;verticalLabelPosition=middle;align=left;verticalAlign=middle;spacingLeft=5;fontColor=#999999;fontSize=12;" parent="989" vertex="1">
          <mxGeometry y="0.5" width="44" height="39" relative="1" as="geometry">
            <mxPoint x="5" y="-19.5" as="offset" />
          </mxGeometry>
        </mxCell>
        <mxCell id="0u9vXaFGfli4As_Fi_g8-1040" style="edgeStyle=orthogonalEdgeStyle;shape=connector;rounded=0;orthogonalLoop=1;jettySize=auto;html=1;entryX=0.75;entryY=0;entryDx=0;entryDy=0;entryPerimeter=0;dashed=0;labelBackgroundColor=none;fontFamily=Helvetica;fontSize=21;fontColor=#000000;startFill=1;endArrow=blockThin;endFill=1;startSize=4;endSize=4;strokeColor=#4284F3;strokeWidth=2;elbow=vertical;" edge="1" parent="1" source="995" target="0u9vXaFGfli4As_Fi_g8-1038">
          <mxGeometry relative="1" as="geometry">
            <Array as="points">
              <mxPoint x="485" y="430" />
              <mxPoint x="588" y="430" />
            </Array>
          </mxGeometry>
        </mxCell>
        <mxCell id="995" value="" style="strokeColor=#dddddd;fillColor=#ffffff;shadow=1;strokeWidth=1;rounded=1;absoluteArcSize=1;arcSize=2;fontSize=11;fontColor=#9E9E9E;align=center;html=1;" parent="1" vertex="1">
          <mxGeometry x="400" y="330" width="170" height="63.72" as="geometry" />
        </mxCell>
        <mxCell id="996" value="&lt;font style=&quot;font-size: 11px&quot;&gt;&lt;font color=&quot;#000000&quot;&gt;Authorization &lt;br&gt;Management System&amp;nbsp;&lt;br&gt;&lt;/font&gt;Google Kubernetes&amp;nbsp;&lt;br&gt;Engine&amp;nbsp;&lt;br&gt;&lt;/font&gt;" style="dashed=0;connectable=0;html=1;fillColor=#5184F3;strokeColor=none;shape=mxgraph.gcp2.hexIcon;prIcon=container_engine;part=1;labelPosition=right;verticalLabelPosition=middle;align=left;verticalAlign=top;spacingLeft=5;fontColor=#999999;fontSize=12;spacingTop=-8;" parent="995" vertex="1">
          <mxGeometry width="44" height="39" relative="1" as="geometry">
            <mxPoint x="5" y="7" as="offset" />
          </mxGeometry>
        </mxCell>
        <mxCell id="1001" style="edgeStyle=orthogonalEdgeStyle;rounded=0;elbow=vertical;html=1;labelBackgroundColor=none;startFill=1;startSize=4;endArrow=blockThin;endFill=1;endSize=4;jettySize=auto;orthogonalLoop=1;strokeColor=#4284F3;strokeWidth=2;fontSize=12;fontColor=#000000;align=left;dashed=0;entryX=0;entryY=0.5;entryDx=0;entryDy=0;" parent="1" source="989" target="995" edge="1">
          <mxGeometry relative="1" as="geometry" />
        </mxCell>
        <mxCell id="0u9vXaFGfli4As_Fi_g8-1012" value="" style="strokeColor=#dddddd;fillColor=#ffffff;shadow=1;strokeWidth=1;rounded=1;absoluteArcSize=1;arcSize=2;fontSize=11;fontColor=#9E9E9E;align=center;html=1;" vertex="1" parent="1">
          <mxGeometry x="400" y="129.95" width="190" height="70.05" as="geometry" />
        </mxCell>
        <mxCell id="0u9vXaFGfli4As_Fi_g8-1013" value="&lt;font style=&quot;font-size: 11px&quot;&gt;&lt;font color=&quot;#000000&quot;&gt;HR Services Application&lt;br&gt;&lt;/font&gt;Google Kubernetes&amp;nbsp;&lt;br&gt;Engine&amp;nbsp;&lt;br&gt;&lt;/font&gt;" style="dashed=0;connectable=0;html=1;fillColor=#5184F3;strokeColor=none;shape=mxgraph.gcp2.hexIcon;prIcon=container_engine;part=1;labelPosition=right;verticalLabelPosition=middle;align=left;verticalAlign=top;spacingLeft=5;fontColor=#999999;fontSize=12;spacingTop=-8;" vertex="1" parent="0u9vXaFGfli4As_Fi_g8-1012">
          <mxGeometry width="44" height="39" relative="1" as="geometry">
            <mxPoint x="5" y="7" as="offset" />
          </mxGeometry>
        </mxCell>
        <mxCell id="0u9vXaFGfli4As_Fi_g8-1014" style="edgeStyle=orthogonalEdgeStyle;rounded=0;orthogonalLoop=1;jettySize=auto;html=1;labelBackgroundColor=none;endArrow=blockThin;fontSize=12;align=left;strokeColor=#4284F3;fontColor=#000000;startFill=1;startSize=4;endFill=1;endSize=4;strokeWidth=2;dashed=0;entryX=-0.005;entryY=0.4;entryDx=0;entryDy=0;entryPerimeter=0;" edge="1" parent="1" source="989" target="0u9vXaFGfli4As_Fi_g8-1012">
          <mxGeometry relative="1" as="geometry">
            <mxPoint x="443" y="191.41463414634148" as="targetPoint" />
          </mxGeometry>
        </mxCell>
        <mxCell id="0u9vXaFGfli4As_Fi_g8-1026" value="" style="edgeStyle=orthogonalEdgeStyle;shape=connector;rounded=0;orthogonalLoop=1;jettySize=auto;html=1;dashed=0;labelBackgroundColor=none;fontFamily=Helvetica;fontSize=12;fontColor=#000000;startFill=1;endArrow=blockThin;endFill=1;startSize=4;endSize=4;strokeColor=#4284F3;strokeWidth=2;elbow=vertical;exitX=0.175;exitY=0.5;exitDx=0;exitDy=0;exitPerimeter=0;entryX=0.5;entryY=0;entryDx=0;entryDy=0;" edge="1" parent="1" source="0u9vXaFGfli4As_Fi_g8-1025" target="0u9vXaFGfli4As_Fi_g8-1002">
          <mxGeometry relative="1" as="geometry">
            <Array as="points">
              <mxPoint x="712" y="157" />
            </Array>
          </mxGeometry>
        </mxCell>
        <mxCell id="0u9vXaFGfli4As_Fi_g8-1025" value="Dedicated&#xa;Interconnect" style="sketch=0;html=1;fillColor=#5184F3;strokeColor=none;verticalAlign=top;labelPosition=center;verticalLabelPosition=bottom;align=center;spacingTop=-6;fontSize=11;fontStyle=1;fontColor=#999999;shape=mxgraph.gcp2.hexIcon;prIcon=dedicated_interconnect;fontFamily=Helvetica;" vertex="1" parent="1">
          <mxGeometry x="750" y="129.95" width="67" height="53.76" as="geometry" />
        </mxCell>
        <mxCell id="0u9vXaFGfli4As_Fi_g8-1027" value="" style="strokeColor=#dddddd;shadow=1;strokeWidth=1;rounded=1;absoluteArcSize=1;arcSize=2;fontFamily=Helvetica;fontSize=12;fontColor=#000000;" vertex="1" parent="1">
          <mxGeometry x="403" y="470" width="150" height="60" as="geometry" />
        </mxCell>
        <mxCell id="0u9vXaFGfli4As_Fi_g8-1028" value="&lt;font color=&quot;#000000&quot;&gt;AMS DB&lt;/font&gt;&lt;br&gt;Cloud Spanner" style="sketch=0;dashed=0;connectable=0;html=1;fillColor=#5184F3;strokeColor=none;shape=mxgraph.gcp2.hexIcon;prIcon=cloud_spanner;part=1;labelPosition=right;verticalLabelPosition=middle;align=left;verticalAlign=middle;spacingLeft=5;fontColor=#999999;fontSize=12;fontFamily=Helvetica;" vertex="1" parent="0u9vXaFGfli4As_Fi_g8-1027">
          <mxGeometry y="0.5" width="44" height="39" relative="1" as="geometry">
            <mxPoint x="5" y="-19.5" as="offset" />
          </mxGeometry>
        </mxCell>
        <mxCell id="0u9vXaFGfli4As_Fi_g8-1029" style="edgeStyle=orthogonalEdgeStyle;shape=connector;rounded=0;orthogonalLoop=1;jettySize=auto;html=1;entryX=0.547;entryY=-0.033;entryDx=0;entryDy=0;entryPerimeter=0;dashed=0;labelBackgroundColor=none;fontFamily=Helvetica;fontSize=12;fontColor=#000000;startFill=1;endArrow=blockThin;endFill=1;startSize=4;endSize=4;strokeColor=#4284F3;strokeWidth=2;elbow=vertical;" edge="1" parent="1" source="995" target="0u9vXaFGfli4As_Fi_g8-1027">
          <mxGeometry relative="1" as="geometry" />
        </mxCell>
        <mxCell id="0u9vXaFGfli4As_Fi_g8-1030" value="" style="shape=mxgraph.gcp2.doubleRect;strokeColor=#dddddd;shadow=1;strokeWidth=1;fontFamily=Helvetica;fontSize=12;fontColor=#000000;" vertex="1" parent="1">
          <mxGeometry x="628" y="480" width="167" height="70" as="geometry" />
        </mxCell>
        <mxCell id="0u9vXaFGfli4As_Fi_g8-1031" value="&lt;font color=&quot;#000000&quot;&gt;Legacy DB&lt;/font&gt;&lt;br&gt;Cloud SQL (HA)" style="sketch=0;dashed=0;connectable=0;html=1;fillColor=#5184F3;strokeColor=none;shape=mxgraph.gcp2.hexIcon;prIcon=cloud_sql;part=1;labelPosition=right;verticalLabelPosition=middle;align=left;verticalAlign=middle;spacingLeft=5;fontColor=#999999;fontSize=12;fontFamily=Helvetica;" vertex="1" parent="0u9vXaFGfli4As_Fi_g8-1030">
          <mxGeometry y="0.5" width="44" height="39" relative="1" as="geometry">
            <mxPoint x="5" y="-19.5" as="offset" />
          </mxGeometry>
        </mxCell>
        <mxCell id="0u9vXaFGfli4As_Fi_g8-1036" style="edgeStyle=orthogonalEdgeStyle;shape=connector;rounded=0;orthogonalLoop=1;jettySize=auto;html=1;entryX=0.5;entryY=1;entryDx=0;entryDy=0;dashed=0;labelBackgroundColor=none;fontFamily=Helvetica;fontSize=12;fontColor=#000000;startFill=1;endArrow=blockThin;endFill=1;startSize=4;endSize=4;strokeColor=#4284F3;strokeWidth=2;elbow=vertical;" edge="1" parent="1" source="0u9vXaFGfli4As_Fi_g8-1033" target="0u9vXaFGfli4As_Fi_g8-1021">
          <mxGeometry relative="1" as="geometry" />
        </mxCell>
        <mxCell id="0u9vXaFGfli4As_Fi_g8-1033" value="" style="strokeColor=#dddddd;fillColor=#ffffff;shadow=1;strokeWidth=1;rounded=1;absoluteArcSize=1;arcSize=2;labelPosition=center;verticalLabelPosition=middle;align=center;verticalAlign=bottom;spacingLeft=0;fontColor=#999999;fontSize=12;whiteSpace=wrap;spacingBottom=2;html=1;" vertex="1" parent="1">
          <mxGeometry x="1006" y="450" width="70" height="70" as="geometry" />
        </mxCell>
        <mxCell id="0u9vXaFGfli4As_Fi_g8-1034" value="" style="dashed=0;connectable=0;html=1;fillColor=#757575;strokeColor=none;shape=mxgraph.gcp2.laptop;part=1;" vertex="1" parent="0u9vXaFGfli4As_Fi_g8-1033">
          <mxGeometry x="0.5" width="50" height="33" relative="1" as="geometry">
            <mxPoint x="-25" y="18.5" as="offset" />
          </mxGeometry>
        </mxCell>
        <mxCell id="0u9vXaFGfli4As_Fi_g8-1037" value="" style="shape=image;html=1;verticalAlign=top;verticalLabelPosition=bottom;labelBackgroundColor=#ffffff;imageAspect=0;aspect=fixed;image=https://cdn1.iconfinder.com/data/icons/unicons-line-vol-5/24/okta-128.png;fontFamily=Helvetica;fontSize=12;fontColor=#000000;" vertex="1" parent="1">
          <mxGeometry x="420" y="620" width="50" height="50" as="geometry" />
        </mxCell>
        <mxCell id="0u9vXaFGfli4As_Fi_g8-1039" value="Okta" style="text;html=1;strokeColor=none;fillColor=none;align=left;verticalAlign=middle;whiteSpace=wrap;rounded=0;fontFamily=Helvetica;fontSize=21;fontColor=#000000;" vertex="1" parent="1">
          <mxGeometry x="470" y="630" width="80" height="30" as="geometry" />
        </mxCell>
      </root>
    </mxGraphModel>
  </diagram>
</mxfile>
